<svg width="48" height="48" viewBox="0 0 48 48" fill="none" xmlns="http://www.w3.org/2000/svg">
<path fill-rule="evenodd" clip-rule="evenodd" d="M23.9998 45.5699C35.9126 45.5699 45.5699 35.9126 45.5699 23.9998C45.5699 12.087 35.9126 2.42969 23.9998 2.42969C12.087 2.42969 2.42969 12.087 2.42969 23.9998C2.42969 35.9126 12.087 45.5699 23.9998 45.5699ZM22.5444 9.12606H25.3399V21.0324C25.3399 21.8675 26.0168 22.5444 26.8518 22.5444H38.7582V25.3399H26.8518C26.0168 25.3399 25.3399 26.0168 25.3399 26.8518V39.1831H22.5444V26.8518C22.5444 26.0168 21.8675 25.3399 21.0325 25.3399H9.12613V22.5444H21.0325C21.8675 22.5444 22.5444 21.8675 22.5444 21.0324V9.12606Z" fill="#575C64"/>
</svg>
