<svg width="48" height="48" viewBox="0 0 48 48" fill="none" xmlns="http://www.w3.org/2000/svg">
<path fill-rule="evenodd" clip-rule="evenodd" d="M45.5699 23.9998C45.5699 35.9126 35.9126 45.5699 23.9998 45.5699C12.087 45.5699 2.42969 35.9126 2.42969 23.9998C2.42969 12.087 12.087 2.42969 23.9998 2.42969C35.9126 2.42969 45.5699 12.087 45.5699 23.9998ZM29.4137 17.3263C29.4137 20.2997 27.0033 22.7101 24.0299 22.7101C21.0565 22.7101 18.6461 20.2997 18.6461 17.3263C18.6461 14.3529 21.0565 11.9425 24.0299 11.9425C27.0033 11.9425 29.4137 14.3529 29.4137 17.3263ZM18.9236 24.075C17.4894 24.075 16.2512 25.0796 15.9556 26.483L14.4821 33.4778H33.4392L32.029 26.5068C31.7428 25.0921 30.4994 24.075 29.0561 24.075H18.9236Z" fill="#04E061"/>
</svg>
